<svg xmlns="http://www.w3.org/2000/svg" viewBox="0 0 68.33 43.75" width="68"><title>Asset 1</title><g id="Layer_2" data-name="Layer 2"><g id="Grid_Template" data-name="Grid Template"><path id="path6" d="M9.85,40.87l0,.07a5.22,5.22,0,0,1-4.59,2.8A5.37,5.37,0,0,1,5.22,33a5.21,5.21,0,0,1,4.6,2.85l.06.1S8.22,37.17,8.2,37.15a.16.16,0,0,0,0-.07,3.1,3.1,0,0,0-2.94-2,3.29,3.29,0,0,0,0,6.57,3.21,3.21,0,0,0,2.89-1.9,1.12,1.12,0,0,0,0-.11Z" style="fill:#181615"/><path id="path10" d="M12,33.1h2v3.75h5.28V33.1h2V43.54h-2V39H14v4.59H12Z" style="fill:#181615"/><path id="path14" d="M49.72,43.54V33.1H57v2.11H51.75V37.3h4.86v2.08H51.75v2.08h6v2.08Z" style="fill:#181615"/><path id="path18" d="M60.61,43.54V33.1h2v8.36h5.67v2.08Z" style="fill:#181615"/><path id="path22" d="M38.75,43.54h-2V33.1h2.84L44,39.38V33.1h2V43.54H44.42l-5.67-7.87Z" style="fill:#181615"/><path id="path26" d="M29,35.21l-1.78,4.17h3.65Zm-2.7,6.25-.93,2.08H23L27.59,33.1h2.83l4.66,10.44H32.66l-.94-2.08Z" style="fill:#181615"/><path id="path30" d="M35.21,29.08a15.23,15.23,0,0,1-7.61,2,15.58,15.58,0,0,1-13.43-7.74s0,0,0,0,0,0,0,0l2.19-1.14L18.51,21a.29.29,0,0,1,.06.09,10.61,10.61,0,0,0,9,5.05,11.21,11.21,0,0,0,3.46-.56A15.26,15.26,0,0,1,27.3,15.54,15.43,15.43,0,0,1,31,5.48a10.47,10.47,0,0,0-3.42-.56,10.66,10.66,0,0,0-9.16,5.27.08.08,0,0,0,0,.06L14,8a.5.5,0,0,1,.06-.11A15.58,15.58,0,0,1,27.6,0a15,15,0,0,1,7.61,2,15,15,0,0,1,7.61-2A15.58,15.58,0,0,1,56.34,7.87a.5.5,0,0,1,.06.11L52,10.25a.08.08,0,0,0,0-.06,10.66,10.66,0,0,0-9.16-5.27,10.47,10.47,0,0,0-3.42.56,15.43,15.43,0,0,1,3.72,10.06A15.26,15.26,0,0,1,39.36,25.6a11.21,11.21,0,0,0,3.46.56,10.61,10.61,0,0,0,9-5.05.3.3,0,0,1,.06-.09l2.19,1.12,2.19,1.14s0,0,0,0,0,0,0,0A15.58,15.58,0,0,1,42.82,31.1,15.23,15.23,0,0,1,35.21,29.08Zm0-6.17a10.75,10.75,0,0,1-3-7.37,10.34,10.34,0,0,1,3-7.29,10.34,10.34,0,0,1,3,7.29A10.76,10.76,0,0,1,35.21,22.91Z" style="fill:#181615"/></g></g></svg>
