<svg xmlns="http://www.w3.org/2000/svg" viewBox="0 0 53.9 65.21" width="53"><title>logo-louis-vuitton</title><g id="Layer_2" data-name="Layer 2"><g id="Grid_Template" data-name="Grid Template"><path d="M52.61,59.1h.71v6L49,60.56v4.32h-.73V58.82l4.36,4.57V59.1Zm-20.42,0v3.67a2.28,2.28,0,0,1-.55,1.58,2,2,0,0,1-1.58.65,1.94,1.94,0,0,1-1.54-.65,2.2,2.2,0,0,1-.57-1.58V59.1h.73v3.43c0,1.2.45,1.81,1.38,1.81s1.42-.61,1.42-1.81V59.1Zm2.23,0h3.47v.67H36.51v5.11h-.69V59.77h-1.4V59.1Zm-1.26,0h.73v5.78h-.73V59.1Zm-6.39,0h.79L25,65.21,22.53,59.1h.79L25,63.38l1.73-4.28ZM46.9,62a2.25,2.25,0,0,1-.69,1.66,2.15,2.15,0,0,1-1.6.67A2.3,2.3,0,0,1,43,63.67,2.25,2.25,0,0,1,42.28,62a2.29,2.29,0,0,1,2.33-2.33,2.12,2.12,0,0,1,1.64.69A2.3,2.3,0,0,1,46.9,62Zm-.16-2.13a3,3,0,0,0-4.28,0,3,3,0,0,0,0,4.28,3,3,0,0,0,2.15.85,3,3,0,0,0,2.13-5.14ZM41.4,59.1v.67H40v5.11h-.73V59.77H37.93V59.1ZM7.83,60.36A2.28,2.28,0,0,1,8.46,62a2.31,2.31,0,0,1-.67,1.66,2.22,2.22,0,0,1-1.62.67,2.3,2.3,0,0,1-1.64-.67A2.4,2.4,0,0,1,3.85,62a2.3,2.3,0,0,1,.65-1.64,2.19,2.19,0,0,1,1.66-.69,2.16,2.16,0,0,1,1.66.69Zm.47-.49A3,3,0,0,0,6.17,59,2.88,2.88,0,0,0,4,59.87a3,3,0,0,0,0,4.28A2.89,2.89,0,0,0,6.17,65a2.89,2.89,0,0,0,2.13-.85,3,3,0,0,0,0-4.28Zm2.21,2.66c0,1.2.47,1.81,1.4,1.81s1.4-.61,1.4-1.81V59.1H14v3.67a2.2,2.2,0,0,1-.57,1.58,1.94,1.94,0,0,1-1.54.65,1.91,1.91,0,0,1-1.54-.65,2.13,2.13,0,0,1-.59-1.58V59.1h.73v3.43ZM1.3,59.1v5.14H3.06v.65H.59V59.1Zm17.39,2.37c1,.39,1.44,1,1.44,1.73a1.7,1.7,0,0,1-.55,1.3,1.73,1.73,0,0,1-1.28.51,1.7,1.7,0,0,1-1.22-.47,1.88,1.88,0,0,1-.59-1.16l.73-.16a1.09,1.09,0,0,0,.32.81,1.1,1.1,0,0,0,.79.3,1,1,0,0,0,.77-.35,1.14,1.14,0,0,0,.28-.79c0-.45-.32-.81-1-1.1L18,62c-.81-.39-1.24-.87-1.24-1.48a1.38,1.38,0,0,1,.51-1.1,1.79,1.79,0,0,1,1.2-.41,1.59,1.59,0,0,1,1.48.89l-.57.32a1.06,1.06,0,0,0-.93-.53,1.09,1.09,0,0,0-.67.2.75.75,0,0,0-.3.61c0,.35.26.61.83.81l.39.18ZM15,59.1h.73v5.78H15V59.1Z" style="fill:#231f20;fill-rule:evenodd"/><path d="M43.5,6.81l-14,33-3.86-8.47L32.77,12c.54-1.5,2.41-2.2,5.58-2.2l1.13-3H22.85l-1.07,3c2.36,0,3.33.7,2.95,2.2l-3.54,9.87-7-15C12.93,5.2,13.57,4.4,16.09,4.4V.91H0V4.4c3,0,4.88.8,5.69,2.41l11.8,25.1L12,46.66c-.11,2-3.22,3-9.23,3L1.61,52.56H47.52L53.9,39H50.58c-3.11,7-6.7,10.62-10.73,10.62H18.77l3.11-8.31,2.68,5.36h6L47.52,6.81c.8-2.41,2.9-3.7,6.17-3.7V0H39.85V3.11c4.18,0,5.36,1.29,3.65,3.7Z" style="fill:#231f20;fill-rule:evenodd"/></g></g></svg>
