<svg xmlns="http://www.w3.org/2000/svg" xmlns:xlink="http://www.w3.org/1999/xlink" viewBox="0 0 125.9 38.79" width="126"><defs><clipPath id="clip-path" transform="translate(0 0)"><rect width="125.9" height="38.79" style="fill:none"/></clipPath></defs><title>logo-chole</title><g id="Layer_2" data-name="Layer 2"><g id="Grid_Template" data-name="Grid Template"><g style="clip-path:url(#clip-path)"><path d="M19.66,35.62a8.94,8.94,0,0,0,8.14-4.28,38.9,38.9,0,0,0,2.1-4.26c.6-1.41,1.17-2,1.84-2s1,.47,1,1.21c0,.39-1.11,6.05-1.15,6.33a4.56,4.56,0,0,1-1,2.66,4.18,4.18,0,0,1-1,.72,20.7,20.7,0,0,1-10.38,2.83A18.79,18.79,0,0,1,0,19.81,19.28,19.28,0,0,1,11.08,2a18.29,18.29,0,0,1,9.24-2c4.85.22,8.5,2.93,9.53,3.53a3.12,3.12,0,0,1,1.54,3c.16,2,.26,4.29.26,4.81,0,1.32-.28,1.86-1,1.86s-.92-.4-1.44-1.76c-2-5.3-5.21-8.07-9.31-8.07A11.32,11.32,0,0,0,9.8,10.35a21.71,21.71,0,0,0-1.64,9c0,6,1.51,10.46,4.5,13.3a9.93,9.93,0,0,0,7,3Z" transform="translate(0 0)" style="fill:#231f20;fill-rule:evenodd"/></g><path d="M43,2.71c0,.95-.06,10.87-.06,11.1,0,.74.19,1.09.58,1.09a2,2,0,0,0,1-.42,10.25,10.25,0,0,1,5-1.35,9.3,9.3,0,0,1,5.29,1.52,6.43,6.43,0,0,1,2.21,3,9.55,9.55,0,0,1,.4,3.38c0,1.59.16,11.22.16,11.22,0,2.26.3,3,1.58,3.75.62.38.8.54.78.77-.05.63-1.2.69-3.53.69l-5.85.08c-1.4,0-2-.19-2-.63,0-.28.27-.6,1-1.12A3.26,3.26,0,0,0,50.85,33c0-.21-.18-13.19-.18-13.19,0-2.35-2-2.84-3.46-2.9a4.77,4.77,0,0,0-3.7,1.8,5.12,5.12,0,0,0-.43,2.67c0,1.46-.06,10.75-.06,11a5.68,5.68,0,0,0,.35,2.3c.22.45.42.65,1.13,1.1s1.22.88,1.22,1.18c0,.49-.8.65-1.76.65H36.09c-1.3,0-1.88-.19-1.86-.61s.93-.84,1.3-1.26a3.05,3.05,0,0,0,.79-1.8c0-.5,0-24.82,0-24.82-.06-2.31-.48-2.64-1-3.08s-.85-.72-.85-1,.24-.48.85-.7a38.56,38.56,0,0,0,3.8-1.54C41,1.73,41.32.61,42.26.68c.77.05.78,1.08.78,2Z" transform="translate(0 0)" style="fill:#231f20;fill-rule:evenodd"/><path d="M71.1,2.45s.22,29,.22,29.37c0,1.87.14,2.78.59,3.37s2.15,1,2,1.82c-.05.39-1.06.44-2.07.44l-7.61.06c-1.64,0-2.11-.16-2.11-.5s.9-.86,1.38-1.27c.71-.61.92-.85.92-2.25,0-.15-.1-25.4-.1-25.4A2.28,2.28,0,0,0,63.29,6c-.51-.32-.91-.64-.69-1.07s.74-.62,1.36-.78a18.79,18.79,0,0,0,2.44-.92A10.86,10.86,0,0,0,69,1.55c.57-.44.73-.7,1.24-.76s.88.33.85,1.65Z" transform="translate(0 0)" style="fill:#231f20;fill-rule:evenodd"/><g style="clip-path:url(#clip-path)"><path d="M120.33,4.66c1.34.32,2,.81,2,1.74,0,1.15-1.16,2.5-3.2,3.73a10.63,10.63,0,0,1-4.3,1.55c-.45,0-1.38,0-1.38-.87,0-.43.41-.87,1.44-1.51a2.76,2.76,0,0,0,1.07-1,2.21,2.21,0,0,0,.38-1.23,2.18,2.18,0,0,0-.78-1.63c-.5-.52-.7-.84-.7-1.15,0-.83,1.17-1,1.83-.77,1,.32,3.47,1.08,3.62,1.11Z" transform="translate(0 0)" style="fill:#231f20;fill-rule:evenodd"/><path d="M110.48,22c.5-2,1.32-6,4.3-6,2.42,0,3.58,3.14,3.91,6.23.08.77.17,1.49-1.65,1.49h-5c-1.81,0-1.81-.62-1.54-1.76Zm10.58,4.63c1,0,4,.15,4.48-.32s.36-.75.36-1.47c0-5.78-4.07-11.6-11.07-11.6-7.66,0-12.08,7.11-12.08,12.31a12.62,12.62,0,0,0,21.77,8.69,2.39,2.39,0,0,0,.78-1.54,1,1,0,0,0-1-1.05c-.37,0-.79.23-1.41.81-1.06,1-4,3.17-7,2.55-5.73-1.21-5.62-7.61-5.34-8.38Z" transform="translate(0 0)" style="fill:#231f20;fill-rule:evenodd"/></g><path d="M88.44,35.35c-4.57,0-5.89-4.74-5.89-9.76,0-6.5,2.92-9.59,5-9.59,5,0,5.79,5.65,5.79,9.59,0,6.78-2.54,9.76-4.91,9.76Zm-.13-22.2c-9.08,0-13.18,7.16-13.18,12.18,0,6.38,4.38,12.89,12.77,12.89a12.38,12.38,0,0,0,12.68-12.5A12.43,12.43,0,0,0,88.31,13.14Z" transform="translate(0 0)" style="fill:#231f20;fill-rule:evenodd"/></g></g></svg>
