<svg xmlns="http://www.w3.org/2000/svg" xmlns:xlink="http://www.w3.org/1999/xlink" viewBox="0 0 83.63 26.3" width="84"><defs><clipPath id="clip-path" transform="translate(0 0)"><rect width="83.63" height="26.3" style="fill:none"/></clipPath></defs><title>Asset 5</title><g id="Layer_2" data-name="Layer 2"><g id="Grid_Template" data-name="Grid Template"><g style="clip-path:url(#clip-path)"><polygon points="82.59 0.48 83.63 0.48 83.63 25.21 82.59 25.21 82.59 26.3 0.52 26.3 0.52 25.21 0 25.21 0 0.48 0.52 0.48 0.52 0 82.59 0 82.59 0.48 82.59 0.48 82.59 0.48" style="fill:#1d1d1b;fill-rule:evenodd"/></g><path d="M9.2,7.16H7.07l1-2.47L9.2,7.16ZM8.38,3.08l-2,5c-.3.74-.65,1.17-1.09,1.26H5.21v.35h2V9.33H7.16q-.65,0-.65-.52l.3-1,.13-.35h2.3L9.85,9c0,.22-.22.3-.65.3H9.11v.35h2.73V9.33h0a.65.65,0,0,1-.52-.22l-.43-.87L8.68,3.08Z" transform="translate(0 0)" style="fill:#fff;fill-rule:evenodd"/><path d="M16.8,3.52a1.18,1.18,0,0,0-.74.17,2.59,2.59,0,0,0-.13,1V8.25a1.64,1.64,0,0,0,.13.87c.09.13.35.22.87.22h.35a1.52,1.52,0,0,0,1.3-.52,2.69,2.69,0,0,0,.52-1.17h.35l0,2H13.76V9.33H14c.35,0,.56-.09.65-.22a4,4,0,0,0,.13-1V4.69a3.35,3.35,0,0,0-.13-1,1.29,1.29,0,0,0-.74-.17h-.13V3.26H17v.26Z" transform="translate(0 0)" style="fill:#fff;fill-rule:evenodd"/><path d="M25.61,5.21V7.38h-.35V7.29a1.53,1.53,0,0,0-.17-.74l-.69-.13h-.65V8a2.83,2.83,0,0,0,.13,1.09c.09.13.35.22.78.22H25a1.56,1.56,0,0,0,1.35-.52,3.59,3.59,0,0,0,.52-1.17h.35l-.13,2H21.61V9.33h.09a1.15,1.15,0,0,0,.74-.22,5.89,5.89,0,0,0,0-1V4.69a4.78,4.78,0,0,0,0-1,1.07,1.07,0,0,0-.65-.22H21.7V3.26h4.86l.13,1.56h-.3A1.63,1.63,0,0,0,26,3.95a1.66,1.66,0,0,0-1.3-.43h-1V6.08h.65a1.23,1.23,0,0,0,.69-.17c.09,0,.17-.26.17-.65v0Z" transform="translate(0 0)" style="fill:#fff;fill-rule:evenodd"/><path d="M36.89,9.68H33.42V9.33h.09c.48,0,.78-.09.78-.3l-.43-.78-1.09-1.3-1,1.13-.43.82c0,.26.22.43.56.43H32v.35h-2.6V9.33h0A3.29,3.29,0,0,0,31.34,8l1.22-1.39-1.65-2-.82-1a1.17,1.17,0,0,0-.65-.17h0V3.26h3.08v.26h-.13c-.35,0-.52.09-.52.3l.39.56,1.09,1.39,1.09-1.3a2.59,2.59,0,0,0,.35-.56c0-.22-.22-.39-.65-.39H34V3.26h2.47v.26h-.09a1.18,1.18,0,0,0-.87.3l-.91,1L33.55,6l1.61,2,1,1.09.78.22v.35Z" transform="translate(0 0)" style="fill:#fff;fill-rule:evenodd"/><path d="M42.4,7.16h-2l1-2.47,1,2.47ZM45,9.33c-.22,0-.43-.09-.48-.22l-.43-.87L42,3.08h-.3l-2,5-.48,1a2.65,2.65,0,0,1-.61.3h0v.35h2V9.33h0q-.65,0-.65-.52l.26-1,.17-.35h2.3l.43,1L43.1,9c0,.22-.22.3-.65.3h0v.35h2.73V9.33Z" transform="translate(0 0)" style="fill:#fff;fill-rule:evenodd"/><path d="M53.95,3.52a1.24,1.24,0,0,0-.78.43l-.09.61V9.81h-.26L48.3,4.17v4c0,.43,0,.65.09.74a1.13,1.13,0,0,0,.87.43h.13v.35H47V9.33h0a.91.91,0,0,0,.87-.43L48,8.16V4.77c0-.61-.09-1-.3-1.09l-.56-.17H47V3.26h2l3.78,4.6V4.56c0-.43-.09-.74-.22-.82l-.74-.22h0V3.26H54v.26Z" transform="translate(0 0)" style="fill:#fff;fill-rule:evenodd"/><path d="M60.54,3.82a2.9,2.9,0,0,1,1.17,2.73A3.17,3.17,0,0,1,61,8.9a3,3,0,0,1-1.74.43c-.35,0-.56-.09-.65-.22a3.85,3.85,0,0,1-.13-1.26V3.52l.56,0a2.91,2.91,0,0,1,1.52.35Zm1.08-.09a7.3,7.3,0,0,0-3.12-.56H57.2l-.91.09v.26h.13a1.15,1.15,0,0,1,.74.22l0,1v3.3l0,1a1.07,1.07,0,0,1-.65.22h-.22v.35h2.6l2.17-.22a2.78,2.78,0,0,0,2-3,2.92,2.92,0,0,0-1.43-2.78Z" transform="translate(0 0)" style="fill:#fff;fill-rule:evenodd"/><path d="M71.18,7.64l-.09,2H65.53V9.33h.13c.39,0,.61-.09.65-.22a2.49,2.49,0,0,0,.17-1V4.69a2,2,0,0,0-.17-1c0-.13-.26-.22-.56-.22h-.09V3.26h4.95l0,1.56H70.4A2.31,2.31,0,0,0,70,3.95a1.77,1.77,0,0,0-1.35-.43h-1V6.08h.65A1,1,0,0,0,69,5.9c.13,0,.22-.26.22-.65v0h.35V7.38h-.35V7.29a2.51,2.51,0,0,0-.13-.74l-.74-.13H67.7V8a4.13,4.13,0,0,0,.13,1.09c.09.13.39.22.82.22H69a1.42,1.42,0,0,0,1.3-.52,4.86,4.86,0,0,0,.56-1.17Z" transform="translate(0 0)" style="fill:#fff;fill-rule:evenodd"/><path d="M77.69,4.82c0,.87-.3,1.3-1,1.39l-1.08.09V3.52h.43a1.84,1.84,0,0,1,1.26.3,1.32,1.32,0,0,1,.35,1Zm2.73,4.86V9.33c-.48,0-1.08-.43-1.74-1.3a5.58,5.58,0,0,0-1.35-1.61c1.13-.22,1.74-.74,1.74-1.61a1.44,1.44,0,0,0-.87-1.3A4.4,4.4,0,0,0,76,3.08l-2.47.17v.26h.09a1,1,0,0,1,.69.17l.17,1V8.07l-.17,1c0,.13-.26.22-.65.22h-.22v.35h3.25V9.33h-.26c-.39,0-.61-.09-.65-.22a2.5,2.5,0,0,1-.17-1V6.64h.09a2.52,2.52,0,0,1,.74.13L77.38,8a6.14,6.14,0,0,0,1.26,1.65Z" transform="translate(0 0)" style="fill:#fff;fill-rule:evenodd"/><path d="M14.54,13.45,11,21.31h-.35L6.94,13.45v5.21a2.63,2.63,0,0,0,.3,1.56c.13.43.48.65,1.09.65h0v.43H5.12v-.43h.09a1.11,1.11,0,0,0,1.09-.65,4.49,4.49,0,0,0,.22-1.65V14.32a3.17,3.17,0,0,0-.22-1.48c-.13-.22-.43-.26-1-.26H5.12v-.43H8.25l3.17,7.07,3.21-7.07h3.08v.43h-.26a1.3,1.3,0,0,0-1,.35,3,3,0,0,0-.22,1.39v4.82a2.32,2.32,0,0,0,.3,1.48c.09.22.35.26.87.26h.35v.43H13.15v-.43h.22c.52,0,.82,0,1-.26a3.44,3.44,0,0,0,.22-1.48V13.45Z" transform="translate(0 0)" style="fill:#fff;fill-rule:evenodd"/><path d="M26.26,12.5a3.12,3.12,0,0,1,2,.65c.78.65,1.17,1.82,1.17,3.6a5.79,5.79,0,0,1-.61,2.82l-.48.65A2.85,2.85,0,0,1,24.09,20a6.11,6.11,0,0,1-.87-3.39,5.43,5.43,0,0,1,.65-2.82,2.58,2.58,0,0,1,2.39-1.3Zm-5,4.21a4.4,4.4,0,0,0,2.26,4.12,4.92,4.92,0,0,0,2.65.69l.52,0-2,1.13c-.48.22-.69.43-.69.65s.13.3.35.3l.56-.3a2,2,0,0,1,1.26-.56,4,4,0,0,1,2.3,1l1,.65a3.74,3.74,0,0,0,1.87.48,2.42,2.42,0,0,0,2.69-2.3h-.43a1.42,1.42,0,0,1-1.52,1,6,6,0,0,1-2.17-.52,9,9,0,0,0-3.25-.74l-.22.09,1.65-1a4.7,4.7,0,0,0,2.47-1.74,4.24,4.24,0,0,0,.91-2.82,4.75,4.75,0,0,0-1.43-3.47,5,5,0,0,0-3.6-1.3,5.17,5.17,0,0,0-3.69,1.3,4.42,4.42,0,0,0-1.39,3.43Z" transform="translate(0 0)" style="fill:#fff;fill-rule:evenodd"/><path d="M36.11,14.32a3.17,3.17,0,0,0-.22-1.48c-.17-.22-.52-.26-1-.26h-.13v-.43h4.43v.43H39c-.48,0-.87,0-1,.26a3.17,3.17,0,0,0-.22,1.48V17.4a5.74,5.74,0,0,0,.35,2.47,2.3,2.3,0,0,0,2.17,1,3,3,0,0,0,1.61-.43,2.1,2.1,0,0,0,1-1.13,7.93,7.93,0,0,0,.17-1.91V14.24a1.78,1.78,0,0,0-.3-1.22,1.35,1.35,0,0,0-1-.43h-.09v-.43h3.25v.43h-.13l-.74.26A1.27,1.27,0,0,0,43.53,14v4a3.31,3.31,0,0,1-1,2.65,3.91,3.91,0,0,1-2.73.87,3.71,3.71,0,0,1-3.12-1.3,2.64,2.64,0,0,1-.56-2.17V14.32Z" transform="translate(0 0)" style="fill:#fff;fill-rule:evenodd"/><path d="M53.3,15h.43v3.08H53.3v0c0-.52,0-.87-.26-1a1.85,1.85,0,0,0-1-.22h-.91v2.17a3.15,3.15,0,0,0,.22,1.61c.13.22.48.35,1.13.35h.52a2.11,2.11,0,0,0,1.87-.78,4.54,4.54,0,0,0,.83-1.65h.43l-.17,2.86H48v-.43h.22c.48,0,.78,0,.91-.26a2.86,2.86,0,0,0,.22-1.48V14.32a2.87,2.87,0,0,0-.22-1.48c-.13-.22-.43-.26-.91-.26h-.09v-.43h7l.13,2.3H54.9a4.53,4.53,0,0,0-.56-1.3,1.9,1.9,0,0,0-.65-.43l-1.17-.09H51.08v3.65H52a1.85,1.85,0,0,0,1-.22c.22-.22.26-.52.26-1v0Z" transform="translate(0 0)" style="fill:#fff;fill-rule:evenodd"/><path d="M65.67,13.15l-.56-.43-1.22-.09H62.41v3.65h1a1.78,1.78,0,0,0,1-.22,1.62,1.62,0,0,0,.22-1v0h.52v3.08h-.52v0c0-.52,0-.87-.22-1a1.59,1.59,0,0,0-1-.22h-1v2.17a3.76,3.76,0,0,0,.22,1.61c.17.22.52.35,1.17.35h.52a2.11,2.11,0,0,0,1.87-.78A5.3,5.3,0,0,0,67,18.45h.43l-.13,2.86h-7.9v-.43h.22c.52,0,.82,0,1-.26a3.44,3.44,0,0,0,.22-1.48V14.32a3.44,3.44,0,0,0-.22-1.48c-.13-.22-.43-.26-.87-.26h-.13v-.43h7l.17,2.3h-.43a6.1,6.1,0,0,0-.61-1.3Z" transform="translate(0 0)" style="fill:#fff;fill-rule:evenodd"/><path d="M79.34,14.11v7.42h-.48l-6.29-8v5.73a2.68,2.68,0,0,0,.13,1.08,1.37,1.37,0,0,0,1.22.56h.17v.43H70.66v-.43c.65,0,1.08-.22,1.26-.56A3.86,3.86,0,0,0,72,19.23V14.37a2.31,2.31,0,0,0-.35-1.56l-1-.22h-.09v-.43h2.91l5.3,6.64V14a1.63,1.63,0,0,0-.39-1.17,1.27,1.27,0,0,0-.91-.26h-.17v-.43h3.34v.43h-.13a1.29,1.29,0,0,0-1.08.56,2.5,2.5,0,0,0-.17,1Z" transform="translate(0 0)" style="fill:#fff;fill-rule:evenodd"/><path d="M26.47,15c-.78,0-1.17.56-1.17,1.65s.43,1.82,1.26,1.82a1.15,1.15,0,0,0,1.13-.87l.3.13a1.51,1.51,0,0,1-1.65,1.09,2.1,2.1,0,0,1-1.52-.56,2,2,0,0,1-.61-1.48,1.91,1.91,0,0,1,.65-1.52,2.16,2.16,0,0,1,1.61-.65,1.6,1.6,0,0,1,1,.3.73.73,0,0,1,.39.56.39.39,0,0,1-.39.39c-.22,0-.43-.17-.48-.52a.49.49,0,0,0-.52-.35Z" transform="translate(0 0)" style="fill:#fff;fill-rule:evenodd"/></g></g></svg>
