<svg xmlns="http://www.w3.org/2000/svg" viewBox="0 0 84.79 51.46" width="85"><title>logo-fendi</title><g id="Layer_2" data-name="Layer 2"><g id="Grid_Template" data-name="Grid Template"><polygon points="4.43 41.84 4.43 51.46 0 51.46 0 28.59 15.15 28.59 15.15 32.65 4.43 32.65 4.43 37.78 13.82 37.78 13.82 41.84 4.43 41.84 4.43 41.84" style="fill:#231f20;fill-rule:evenodd"/><polygon points="33.79 28.59 33.79 32.65 22.48 32.65 22.48 37.45 32.87 37.45 32.87 41.51 22.48 41.51 22.48 47.4 34.3 47.4 34.3 51.46 18.12 51.46 18.12 28.59 33.79 28.59 33.79 28.59" style="fill:#231f20;fill-rule:evenodd"/><polygon points="50.9 44.51 50.9 28.59 55.04 28.59 55.04 51.46 50.6 51.46 41.88 35.15 41.82 35.15 41.82 51.46 37.68 51.46 37.68 28.59 42.36 28.59 50.85 44.51 50.9 44.51 50.9 44.51" style="fill:#231f20;fill-rule:evenodd"/><path d="M67.93,32.57a5.56,5.56,0,0,1,2.3.48,4,4,0,0,1,1.82,2.1,11.39,11.39,0,0,1,.76,4.69,14.13,14.13,0,0,1-.48,3.74,6.18,6.18,0,0,1-1.57,2.82A3.79,3.79,0,0,1,68,47.48H63.67V32.57Zm.59,18.89a7.71,7.71,0,0,0,4.24-1.11,8.07,8.07,0,0,0,2.75-2.92,13.45,13.45,0,0,0,1.43-3.85,20.28,20.28,0,0,0,.42-4.1A18.5,18.5,0,0,0,77,35.78a11.57,11.57,0,0,0-1.33-3.5A7.37,7.37,0,0,0,73,29.62a8.24,8.24,0,0,0-4.28-1H59.31V51.46Z" style="fill:#231f20;fill-rule:evenodd"/><polygon points="84.79 28.59 84.79 51.46 80.36 51.46 80.36 28.59 84.79 28.59 84.79 28.59" style="fill:#231f20;fill-rule:evenodd"/><polygon points="34.64 0 34.6 19.87 37.57 19.87 37.57 9.53 42.38 9.53 42.38 6.92 37.57 6.92 37.57 2.77 46.12 2.77 46.16 0.02 34.64 0 34.64 0" style="fill:#231f20;fill-rule:evenodd"/><polygon points="50.15 19.87 50.19 0 47.22 0 47.22 10.35 42.4 10.35 42.4 12.96 47.22 12.96 47.22 17.11 38.66 17.11 38.63 19.86 50.15 19.87 50.15 19.87" style="fill:#231f20;fill-rule:evenodd"/></g></g></svg>
