<svg xmlns="http://www.w3.org/2000/svg" xmlns:xlink="http://www.w3.org/1999/xlink" viewBox="0 0 83.63 16.66" width="84"><defs><clipPath id="clip-path" transform="translate(0 0)"><rect width="83.63" height="16.66" style="fill:none"/></clipPath></defs><title>logo-versace</title><g id="Layer_2" data-name="Layer 2"><g id="Grid_Template" data-name="Grid Template"><g style="clip-path:url(#clip-path)"><path d="M75.44.33h8.19v1.3a2.34,2.34,0,0,0-.74-.12H78.19v6.1h4.58a3.61,3.61,0,0,0,.87-.1v1.3a3.89,3.89,0,0,0-.85-.07h-4.6V15h4.57a3.81,3.81,0,0,0,.88-.12v1.4H75.46a2.94,2.94,0,0,0,.1-.76V1.1a2.27,2.27,0,0,0-.11-.77Z" transform="translate(0 0)" style="fill:#1d1d1b;fill-rule:evenodd"/><path d="M73.55,4.48l-2.37,0a2.94,2.94,0,0,0-2.55-2.85C65,1.29,64,5.23,64.11,8.12s.54,7.06,4.24,7.06a3.21,3.21,0,0,0,3-2.95l2.19,0c-.16,2.78-3.35,4.39-4.87,4.45-5.19.18-7.36-3.28-7.47-8.21C61.11,4,62.94,0,68.07,0c4.39.06,5.24,2.66,5.48,4.48Z" transform="translate(0 0)" style="fill:#1d1d1b;fill-rule:evenodd"/></g><path d="M36.64,14.51l1.57-1.31c.82,1.35,1.49,2,3.11,2a2.78,2.78,0,0,0,3-2.77,2.55,2.55,0,0,0-1.06-2.12A16.29,16.29,0,0,0,40.9,9C39,8.08,37.16,6.9,37.16,4.52c0-3,2.55-4.32,5.24-4.42a6.07,6.07,0,0,1,4.37,1.8L45.17,3.13a3.33,3.33,0,0,0-2.93-1.76c-2,0-3.64,2.35-2,4a10.32,10.32,0,0,0,2.63,1.54c2.12,1,3.93,2.18,3.93,4.81a4.81,4.81,0,0,1-.71,2.53,5.09,5.09,0,0,1-4.73,2.34c-2.54,0-3-.58-4.77-2.06Z" transform="translate(0 0)" style="fill:#1d1d1b;fill-rule:evenodd"/><g style="clip-path:url(#clip-path)"><path d="M14.31.33H22.5v1.3a2.34,2.34,0,0,0-.74-.12H17v6.1h4.58a3.61,3.61,0,0,0,.87-.1v1.3a3.86,3.86,0,0,0-.84-.07H17V15h4.57a3.81,3.81,0,0,0,.88-.12v1.4H14.32a3.25,3.25,0,0,0,.09-.76V1.1a2.44,2.44,0,0,0-.1-.77Z" transform="translate(0 0)" style="fill:#1d1d1b;fill-rule:evenodd"/><path d="M0,.33H3V.48A1.89,1.89,0,0,0,3.09,1l4.2,12.63L11.59,1a2.09,2.09,0,0,0,.1-.63h1.45a3.93,3.93,0,0,0-.32.68L7.9,15.68a3.49,3.49,0,0,0-.13.65H5.34a4.11,4.11,0,0,0-.16-.65L.35,1.13C.3,1,.18.72,0,.33Z" transform="translate(0 0)" style="fill:#1d1d1b;fill-rule:evenodd"/></g><path d="M31.11,7.45A3.14,3.14,0,0,1,29.26,8H28V1.49h1.09a3.15,3.15,0,0,1,2.18.69,3.33,3.33,0,0,1,1.07,2.59,3.09,3.09,0,0,1-1.26,2.67Zm.49,1.22a4,4,0,0,0,3.45-4c0-2.8-2.34-4.33-5-4.33H25.29a2.89,2.89,0,0,1,.1.77V15.56a2.44,2.44,0,0,1-.1.77h2.85a2.82,2.82,0,0,1-.1-.77V8.92L29,9l4.78,7.32h2.87l-5-7.66Z" transform="translate(0 0)" style="fill:#1d1d1b;fill-rule:evenodd"/><path d="M50.92,10.14l2.49-7.23L56,10.14Zm9.82,5.52L55.41.86a2,2,0,0,1-.1-.53H53a1.74,1.74,0,0,1-.1.59L47.73,15.67a2.93,2.93,0,0,1-.32.66h1.49a1.9,1.9,0,0,1,.09-.66l1.53-4.35H56.4l1.51,4.35a2.09,2.09,0,0,1,.12.66h3.09a3.25,3.25,0,0,1-.38-.66Z" transform="translate(0 0)" style="fill:#1d1d1b;fill-rule:evenodd"/></g></g></svg>
