<svg xmlns="http://www.w3.org/2000/svg" viewBox="0 0 169.59 17.36" width="170"><title>Asset 6</title><g id="Layer_2" data-name="Layer 2"><g id="Grid_Template" data-name="Grid Template"><path d="M145.6,9.46l3.13,0L147.17,5.6,145.6,9.46Zm-34.9,0,3.13,0c-.12-.44-1.4-3.65-1.58-3.88l-1.55,3.84Zm-42-1c1.42,0,3.21-.06,3.34-2.14a2,2,0,0,0-.82-1.91A5,5,0,0,0,68.73,4V8.41ZM121.44,8v.35c3.59.62,4.1-3.07,2.48-4a4.47,4.47,0,0,0-2.49-.27V8ZM48.38,4a4,4,0,0,1,1.08.23c.4.15.5.33.5.82v7.14c0,1.05-.63.9-1.57,1l0,.51h4.74c0-.88-.09-.34-1.08-.71-.41-.16-.5-.38-.5-.93V5.15C51.55,4.07,52,4,53.12,4V3.45H48.38V4Zm38.87,0c.84.23,1.58.09,1.58,1.08v7.14c0,1-.66.95-1.56,1l0,.52c1.53,0,3.26,0,4.74,0v-.5c-.94-.14-1.57-.09-1.57-1.13V5c0-.47.07-.72.46-.87A4.3,4.3,0,0,1,92,4V3.46H87.25v.49Zm77.6,0c.82.19,1.58.11,1.58,1.07v7.07c0,1.16-.66.88-1.57,1.08v.47c.48.06,4.1,0,4.74,0v-.48C168.65,13,168,13.11,168,12V5c0-1,.67-1,1.58-1.06V3.47h-4.74v.5ZM85.23,13c-.14-3-.26-3.27,1.32-3.45l0-.53H82v.52c1.81.15,1.75.28,1.74,2a6.69,6.69,0,0,1,0,.9c0,.2,0,.22-.53.44-2.41,1-4.78-.54-5.05-3.78C77.55,2.91,83.65,2,84.57,7h.63l-.07-3.57h-.61l-.26.47a6.13,6.13,0,0,0-2.94-.68,5.22,5.22,0,0,0-5.06,5.84c.21,3.35,2.95,5.15,6.09,4.75A16.1,16.1,0,0,0,85.23,13ZM46.36,13c-.05-1-.3-2.88.37-3.24a2.93,2.93,0,0,1,.74-.17c.21-.07.23.07.22-.55H43.09v.52c1.77.16,1.75.24,1.75,2,0,1,.06,1.1-.52,1.37-2.18,1-4.79-.27-5.11-3.66C39,6.87,39.76,4.68,41.5,4a2.88,2.88,0,0,1,3.73,1.59A13.18,13.18,0,0,0,45.77,7h.56l-.06-3.55c-.84,0-.5,0-.9.44-.32-.07-.83-.37-1.27-.5a5.29,5.29,0,0,0-6.7,5.73c.22,3.27,3,5.11,6.11,4.69A16,16,0,0,0,46.36,13Zm60.87.25v.39h4v-.52c-1.08-.09-1.66-.2-1.45-1.06.17-.71.48-1.31.67-2h3.71A18,18,0,0,1,115,12.8c-.33.32-.8.27-1.32.37v.48l4.38,0c0-.78,0-.41-.67-.65s-.85-.81-1.18-1.64L115.17,8.7c-.35-.89-2-4.89-2.14-5.4h-.62c-.11.49-1.8,4.57-2.13,5.39a22,22,0,0,1-1.77,3.93c-.59.62-1.11.34-1.27.65ZM97.78,3.89c-2.2.33-2.92,2.72-2.79,5.19.12,2.3,1.25,4.59,3.77,4.14,2.13-.38,2.85-2.74,2.72-5.18s-1.2-4.52-3.7-4.15ZM59,3.87c-2.25.22-3,2.57-2.94,5s1.07,4.61,3.59,4.37c2.23-.22,3-2.64,2.92-5S61.54,3.63,59,3.87Zm69.75-.23v.26l.31.1a3.43,3.43,0,0,1,.38.08c.73.22,1,.76,1,1.59V11a2.72,2.72,0,0,1-.33,1.64c-.37.43-1.05.38-1.24.46s-.17,0-.17.52c1.24,0,3.16,0,4.27,0v-.48c-.76-.22-1.39-.2-1.63-.93-.31-.91-.16-5.52-.18-7V4.77c0-.12,0-.1.05-.15a21.73,21.73,0,0,1,.88,2.2c.29.76.57,1.52.87,2.27l1.31,3.4c.08.2.15.37.22.57s.08.46.38.44.25-.2.34-.42l.23-.56.46-1.11L138.55,5c.13-.25,0-.13.2-.18V12c0,1.09-.66,1.05-1.62,1.13l0,.51h4.65v-.49c-1-.2-1.44-.08-1.44-1.21V5.15c0-1.23.46-1,1.43-1.21V3.48c-.51-.08-2.73,0-3.43,0-.16,1.43-2.55,6.3-2.88,7.62a3.81,3.81,0,0,1-.42-.93l-2.55-6.49c-.09-.18,0-.2-.32-.2h-3.35v.2ZM118.45,4c1.23.07,1.41.3,1.41,1.11v7c0,1-.46,1-1.39,1.06l0,.51h4.45v-.5c-1.15-.21-1.46,0-1.45-1.34,0-.89,0-1.9,0-2.78,1.17-.2,1.15.11,1.55.6a49,49,0,0,1,2.85,4h2.87v-.46c-.42-.21-.8,0-1.63-.69-.12-.1-2.84-3.56-3-3.9,1.68-.44,2.85-1.53,2.49-3.26S124,3.45,122.46,3.45h-4V4ZM65.74,4a3.67,3.67,0,0,1,1,.21c.38.16.37.46.37,1v6.94c0,1-.49,1-1.39,1.06v.51h4.45v-.5c-1-.15-1.45,0-1.45-1.14,0-.76,0-2.32,0-3H69.8a52.34,52.34,0,0,1,3.33,4.63H76l-.11-.5-.33-.07a2.06,2.06,0,0,1-1.17-.6,10.29,10.29,0,0,1-1-1.26c-.17-.22-1.87-2.42-2-2.62,1.43-.32,2.67-1.26,2.53-3C73.77,4,72.16,3.45,70.46,3.45H65.74V4Zm76.4,9.3v.39h4v-.52c-1.1-.09-1.65-.21-1.45-1.06.16-.69.45-1.31.67-2h3.6a9.22,9.22,0,0,1,1,2.66c-.32.32-.78.3-1.32.37v.5c2,.07,6.51,0,8.7,0v-.52c-1.67-.19-1.87-.67-1.87-2.49V5.45l1.66,2.14c.53.74,1.11,1.46,1.67,2.19s1.09,1.44,1.67,2.19l.82,1.08c.13.17.26.37.43.56s.37.18.75.14c.17-1.47-.15-6.95.08-8.56.15-1.09.63-1,1.64-1.24V3.47c-.48-.06-3.66,0-4.28,0V4c1.85.31,1.85.69,1.85,2.64q0,2.28,0,4.55l-.24-.22c-.85-1-2-2.61-2.82-3.72-.72-.93-1.94-2.49-2.6-3.43-.18-.25-.18-.32-.59-.32-.66,0-2.08,0-2.66,0v.48c1.17.31,1.9.52,1.9,1.92V11c0,.73,0,1.46-.54,1.78a2.33,2.33,0,0,1-1.9.17c-.63-.25-.74-.67-1-1.29-.89-2.14-1.81-4.52-2.67-6.7a16.43,16.43,0,0,1-.66-1.7h-.63c-.15.58-2.8,7-3.23,8.09-.38.9-.58,1.5-1.57,1.7-.36.07-.31.08-.37.18Zm-44.72-10a5.17,5.17,0,0,0-4.19,6.06,5,5,0,0,0,5.82,4.5c2.7-.4,4.58-2.89,4.18-6.11a5,5,0,0,0-5.81-4.45Zm-38.94,0c-2.68.48-4.58,2.92-4.1,6.2a5,5,0,0,0,5.88,4.33c2.65-.45,4.51-2.92,4.1-6.12A5,5,0,0,0,58.49,3.3Z" transform="translate(0 0)" style="fill-rule:evenodd"/><path d="M22.12,15.06l.11.28h.56v.2H20.73v-.2h.74l-.11-.28h-3.5l-.11.28h.5v.2H16.94v-.2h.49l.11-.28H16.7v.56s-.23-.64-1.1-.23h0a1.57,1.57,0,0,1-.9.27,2.41,2.41,0,0,1-1.54-.6h-.52c0,.08,0,.16,0,.23a2.33,2.33,0,0,0,1.23,2.06H22a2.34,2.34,0,0,0,1.22-2.3Zm-6.52,0H13.8a1.58,1.58,0,0,0,1,.33,1,1,0,0,0,.76-.33Zm-3.38-3h-2v.56a1.91,1.91,0,0,0,1.11,1.73h1.31a3.4,3.4,0,0,1-.41-1.7,4.79,4.79,0,0,1,0-.59Zm12.32,0H20.91l.92,2.3h2.7a1.91,1.91,0,0,0,1.11-1.73v-.56Zm-6.39,2.3h2.93l-.24-.61H18.39l-.24.61Zm.32-.81h2.28l-.6-1.49H19.07l-.6,1.49Zm-5.42-.89a4.63,4.63,0,0,0,.26,1.7H15.9v-1h-.45v-.2h1.73v.2H16.7v1h1.13l.92-2.3H13.08a5.22,5.22,0,0,0,0,.59ZM7.65,9v.74a1.56,1.56,0,0,0,1.56,1.56h3.17A2.37,2.37,0,0,1,14.7,9.68a1.76,1.76,0,0,1,.56.09c1.11.22,1.17-.06,1.17-.11h0a.05.05,0,0,1,0,0v1.67H19l.79-2,.79,2h6a1.56,1.56,0,0,0,1.56-1.56V9Zm7.19.88a1.74,1.74,0,0,0-1.6,1.42h3c-.08-.91-.37-1.42-1.36-1.42Zm4.52,1.42h.51l-.25-.63-.25.63Zm2.7-9.6A2.42,2.42,0,0,0,20.39,0h-5a4.64,4.64,0,0,0-.65,2.35h5.17c.07-.5.14-.62,2.11-.62ZM20.22,5.2l-.7-2.07H14.78c0,.32,0,.63,0,.92s0,.76,0,1.14Zm1.95.93L21.4,7a6.71,6.71,0,0,1-.8-.91H14.72a10.19,10.19,0,0,1-.16,1.08l-.91-1.08H5.05A1.91,1.91,0,0,0,6.22,8.19H29.6a1.91,1.91,0,0,0,1.16-2.07Zm2.51-3L22.93,5.2h9.18a1.91,1.91,0,0,0,1.16-2.07Zm11.11-3h-8.6L25.44,2.21h9.18A1.91,1.91,0,0,0,35.78.14Zm-24.64,3H2.54A1.91,1.91,0,0,0,3.71,5.2h9.18L11.14,3.13ZM8.63.14H0A1.91,1.91,0,0,0,1.2,2.21h9.18L8.63.14Z" transform="translate(0 0)" style="fill:#1d1d1b"/></g></g></svg>
